<?xml version="1.0" encoding="utf-8"?>
<!-- Generator: Adobe Illustrator 20.1.0, SVG Export Plug-In . SVG Version: 6.00 Build 0)  -->
<svg version="1.1" id="Layer_1" xmlns="http://www.w3.org/2000/svg" xmlns:xlink="http://www.w3.org/1999/xlink" x="0px" y="0px"
	 width="350px" height="350px" viewBox="0 0 263.4 238.4" style="enable-background:new 0 0 263.4 238.4;" xml:space="preserve"
	>
<style type="text/css">

	.st39{fill:#36BEC0;}
    
</style>
<g>
	<path class="st39" d="M164.4,108.9c-0.5-0.8-1.4-1.4-2.3-1.6c-3.3-0.7-6.1-2.9-7.6-6c-3.5-7.3-3.3-15-3-23.3l0.1-2.7
		c0.1-5-3.7-9.4-8.7-9.9c-4.8-0.5-8.3,2.2-9.4,7.2c-1.5,7.4-2.4,13.8-2.8,21.1l-22.8-4.6l-2.9-0.6c-3-0.6-6,1.3-6.7,4.3l-0.7,3.3
		c-0.3,1.3-0.1,2.5,0.4,3.6l0,0c-2.9-0.6-5.7,1.2-6.3,4.1l-0.7,3.1c-0.3,1.6,0,3.1,0.8,4.5c0.7,1.1,1.7,1.9,3,2.3
		c-0.7,0.8-1.3,1.7-1.5,2.8l-0.7,3.3c-0.7,3.2,1.4,6.4,4.5,7.1c-1.3,1-2.2,2.4-2.6,4.1c-0.4,1.9,0,3.8,1,5.4
		c1.1,1.6,2.7,2.7,4.6,3.1l10.1,2.1c0.2,0,0.4,0.1,0.6,0.1l0,0.1l21.5,4.5c2.3,0.5,4.7,0.7,7,0.7c6.4,0,12.7-1.9,18.2-5.4
		c0.8-0.5,1.4-1.4,1.6-2.3l5.9-27.7C165.1,110.7,164.9,109.7,164.4,108.9z M100.4,96.7l0.7-3.3c0.3-1.4,1.7-2.3,3.1-2l2,0.4l0,0
		l0.9,0.2l17,3.6c0.7,0.1,1.3,0.5,1.7,1.1c0.4,0.6,0.5,1.3,0.4,2l-0.7,3.3c-0.3,1.6-2,2.7-3.6,2.3l-19.1-4
		C101.1,100,100.1,98.4,100.4,96.7z M94.2,109.8c-0.4-0.7-0.6-1.4-0.4-2.2l0.7-3.1c0.3-1.2,1.5-2,2.7-1.8l24.4,5.1
		c1.4,0.3,2.3,1.7,2,3.1l-0.7,3.1c-0.3,1.4-1.7,2.3-3.1,2l-23.8-5C95.3,110.9,94.6,110.4,94.2,109.8z M95.4,120.4l0.7-3.3
		c0.1-0.7,0.5-1.3,1.1-1.7s1.3-0.5,2-0.4l20,4.2c1.4,0.3,2.3,1.7,2,3.1l-0.7,3.3c-0.3,1.6-1.9,2.7-3.5,2.3l-19.2-4.1
		C96.1,123.6,95.1,122,95.4,120.4z M100.7,136.6c-1.1-0.2-2.1-0.9-2.7-1.8c-0.6-0.9-0.8-2.1-0.6-3.2c0.5-2.3,2.7-3.7,5-3.3l10.1,2.1
		c1.1,0.2,2.1,0.9,2.7,1.8c0.6,0.9,0.8,2.1,0.6,3.2s-0.9,2.1-1.8,2.7c-0.9,0.6-2.1,0.8-3.2,0.6L100.7,136.6z M156.1,138.7
		c0,0.2-0.2,0.4-0.3,0.5c-6.8,4.4-15,6-22.9,4.3l-16.4-3.5c1.1-1,1.9-2.4,2.2-3.9c0.4-1.8,0.1-3.5-0.8-5.1c2.6-0.1,5-2,5.5-4.7
		l0.7-3.3c0.4-1.7-0.1-3.3-1.1-4.6c1.4-0.8,2.5-2.1,2.8-3.8l0.7-3.1c0.4-1.8-0.1-3.5-1.2-4.8c1.5-0.8,2.7-2.3,3.1-4.1l0.7-3.3
		c0.2-1,0.1-2-0.2-2.9l4.4,0.9l0.1-1.7c0.4-7.9,1.3-14.6,2.9-22.4c0.5-2.4,2-5.2,6.2-4.8c3.5,0.3,6.1,3.3,6,6.8l-0.1,2.7
		c-0.3,8.6-0.5,16.7,3.3,24.7c1.9,4,5.4,6.8,9.7,7.7c0.2,0.1,0.4,0.2,0.4,0.3c0.1,0.1,0.1,0.3,0.1,0.5L156.1,138.7z"/>
	<path class="st39" d="M139.5,149.7c2.2,11.7-2.4,23.5-6.7,32.6c-0.8-3.2-1.8-6.6-2.3-8.5c-0.3-0.9-1.1-1.6-2.1-1.7
		c-1-0.1-1.9,0.5-2.3,1.4c-2.5,5.9-4.7,9.7-7.1,13.7c-0.7,1.2-1.4,2.3-2.1,3.5c-1.4-5.4-1.9-11.2-2.3-16c-0.1-1.7-0.3-3.4-0.4-4.7
		c-0.1-1-0.8-1.7-1.7-2c-1-0.2-1.9,0.1-2.5,1c-1.1,1.6-2.1,3.1-3,4.4c-1,1.4-1.9,2.7-2.7,3.9c-3.2-10.2-2.3-20.9,2.6-33.7l-2.8-1.1
		c-5.3,13.7-6.1,25.2-2.6,36.1c0.3,1,1.2,1.8,2.3,1.9c1.1,0.1,2.1-0.3,2.7-1.2c0.9-1.3,1.8-2.7,2.9-4.2c0.6-0.9,1.3-1.9,2-2.9
		c0.1,0.9,0.2,1.8,0.2,2.7c0.4,5,0.9,11.2,2.5,17c0.3,1.1,1.2,1.9,2.3,2c0.1,0,0.2,0,0.4,0c1,0,1.9-0.5,2.4-1.4
		c0.8-1.4,1.5-2.7,2.3-4c2.2-3.7,4.2-7.2,6.5-12.3c0.6,2,1.3,4.7,1.9,7.1c0.3,1.1,1.2,2,2.4,2.1c1.2,0.1,2.3-0.5,2.8-1.6
		c4.6-9.6,9.6-22.3,7.2-35.1L139.5,149.7z"/>
	<path class="st39" d="M109.9,144c-1.1,2.4-0.9,9.2,4.5,15c1.5,1.6,1.8,3.8,2,6.2c0.3,2.4,0.5,5.1,2.2,7.5l0.1,0.1
		c0.3,0.5,0.6,0.7,1.1,0.8c0.1,0,0.2,0,0.2,0c0.3,0,0.7-0.1,1.1-0.5c1.5-1,2.5-2.8,3.5-4.7c1.4-2.7,2.9-5.4,6-6.5
		c3.1-1.1,5.4-5.1,6.9-11.9l-2.9-0.7c-1.2,5.4-3.1,9.1-5,9.7c-4.2,1.5-6.1,5.1-7.7,8c-0.6,1-1.1,2-1.6,2.8c-0.7-1.5-0.8-3.2-1-4.9
		c-0.3-2.7-0.6-5.6-2.8-8c-4.8-5.1-4.5-10.6-4-11.7L109.9,144z"/>
</g>
<g>
	<path class="st39" d="M110.1,69.5h-5.4l4.3-5.6c0.5-0.7,0.4-1.6-0.3-2.1c-0.7-0.5-1.6-0.4-2.1,0.3l-4.6,6l-4.6-6
		c-0.5-0.7-1.4-0.8-2.1-0.3c-0.7,0.5-0.8,1.4-0.3,2.1l4.3,5.6h-5.6c-0.8,0-1.5,0.7-1.5,1.5s0.7,1.5,1.5,1.5h4.9l-3.6,4.7
		c-0.5,0.7-0.4,1.6,0.3,2.1c0.3,0.2,0.6,0.3,0.9,0.3c0.5,0,0.9-0.2,1.2-0.6l4.6-6l4.6,6c0.3,0.4,0.7,0.6,1.2,0.6
		c0.3,0,0.6-0.1,0.9-0.3c0.7-0.5,0.8-1.4,0.3-2.1l-3.6-4.7h4.7c0.8,0,1.5-0.7,1.5-1.5S110.9,69.5,110.1,69.5z"/>
	<path class="st39" d="M143.1,30.4l-5.4-0.5l4.8-5.2c0.6-0.6,0.5-1.6-0.1-2.1c-0.6-0.6-1.6-0.5-2.1,0.1l-5.2,5.5l-4-6.4
		c-0.4-0.7-1.4-0.9-2.1-0.5c-0.7,0.4-0.9,1.4-0.5,2.1l3.7,6l-5.6-0.6c-0.8-0.1-1.6,0.5-1.6,1.3c-0.1,0.8,0.5,1.6,1.3,1.6l4.8,0.5
		l-4,4.3c-0.6,0.6-0.5,1.6,0.1,2.1c0.3,0.3,0.7,0.4,1,0.4c0.4,0,0.8-0.2,1.1-0.5l5.2-5.5l4,6.4c0.3,0.5,0.8,0.7,1.3,0.7
		c0.3,0,0.5-0.1,0.8-0.2c0.7-0.4,0.9-1.4,0.5-2.1l-3.1-5l4.7,0.5c0.1,0,0.1,0,0.2,0c0.8,0,1.4-0.6,1.5-1.4
		C144.5,31.2,143.9,30.5,143.1,30.4z"/>
	<path class="st39" d="M171.7,92.9l-4.1,4.2c-0.6,0.6-0.6,1.5,0,2.1c0.3,0.3,0.7,0.4,1,0.4c0.4,0,0.8-0.2,1.1-0.5l5.2-5.4l3.9,6.5
		c0.3,0.5,0.8,0.7,1.3,0.7c0.3,0,0.5-0.1,0.8-0.2c0.7-0.4,0.9-1.3,0.5-2.1l-3-5.1l4.6,0.5c0.1,0,0.1,0,0.2,0c0.8,0,1.4-0.6,1.5-1.3
		c0.1-0.8-0.5-1.6-1.3-1.7l-5.4-0.6l4.9-5.1c0.6-0.6,0.6-1.5,0-2.1s-1.5-0.6-2.1,0l-5.2,5.4l-3.9-6.5c-0.4-0.7-1.3-0.9-2.1-0.5
		c-0.7,0.4-0.9,1.3-0.5,2.1l3.6,6.1l-5.6-0.6c-0.8-0.1-1.6,0.5-1.7,1.3c-0.1,0.8,0.5,1.6,1.3,1.7L171.7,92.9z"/>
	<path class="st39" d="M80.7,187.5l-5.4-2.3l4.1-2.3c0.7-0.4,1-1.3,0.6-2c-0.4-0.7-1.3-1-2-0.6l-4.7,2.6l1-7
		c0.1-0.8-0.5-1.6-1.3-1.7c-0.8-0.1-1.6,0.5-1.7,1.3l-1.1,7.5l-6.9-3c-0.8-0.3-1.6,0-2,0.8s0,1.6,0.8,2l6.5,2.8l-4.9,2.7
		c-0.7,0.4-1,1.3-0.6,2c0.3,0.5,0.8,0.8,1.3,0.8c0.2,0,0.5-0.1,0.7-0.2l4.2-2.4l-0.8,5.8c-0.1,0.8,0.5,1.6,1.3,1.7
		c0.1,0,0.1,0,0.2,0c0.7,0,1.4-0.5,1.5-1.3l1.1-7.5l6.9,3c0.2,0.1,0.4,0.1,0.6,0.1c0.6,0,1.1-0.3,1.4-0.9
		C81.8,188.7,81.5,187.8,80.7,187.5z"/>
	<path class="st39" d="M184.3,160.6c0-0.8-0.7-1.5-1.5-1.5h-4.5l3.6-4.8c0.5-0.7,0.4-1.6-0.3-2.1c-0.7-0.5-1.6-0.4-2.1,0.3l-4,5.2
		l-4-5.2c-0.5-0.7-1.4-0.8-2.1-0.3c-0.7,0.5-0.8,1.4-0.3,2.1l3.6,4.8h-4.7c-0.8,0-1.5,0.7-1.5,1.5s0.7,1.5,1.5,1.5h4l-3,3.9
		c-0.5,0.7-0.4,1.6,0.3,2.1c0.3,0.2,0.6,0.3,0.9,0.3c0.5,0,0.9-0.2,1.2-0.6l4-5.2l4,5.2c0.3,0.4,0.7,0.6,1.2,0.6
		c0.3,0,0.6-0.1,0.9-0.3c0.7-0.5,0.8-1.4,0.3-2.1l-3-3.9h3.8C183.6,162.1,184.3,161.4,184.3,160.6z"/>
	<path class="st39" d="M89.6,39.4l-3.5-0.7l3.7-3.2c0.6-0.5,0.7-1.5,0.1-2.1c-0.5-0.6-1.5-0.7-2.1-0.1l-4.1,3.6L81.4,32
		c-0.4-0.7-1.3-1.1-2-0.7c-0.7,0.4-1.1,1.3-0.7,2l2.1,4.4l-3.6-0.7c-0.8-0.2-1.6,0.4-1.8,1.2c-0.2,0.8,0.4,1.6,1.2,1.8l3,0.6
		L76.7,43c-0.6,0.5-0.7,1.5-0.1,2.1c0.3,0.3,0.7,0.5,1.1,0.5c0.3,0,0.7-0.1,1-0.4l4.1-3.6l2.4,4.9c0.3,0.5,0.8,0.8,1.4,0.8
		c0.2,0,0.4,0,0.6-0.1c0.7-0.4,1.1-1.3,0.7-2l-1.7-3.5l2.9,0.6c0.1,0,0.2,0,0.3,0c0.7,0,1.3-0.5,1.5-1.2
		C91,40.4,90.4,39.6,89.6,39.4z"/>
	<path class="st39" d="M173.1,64c5,0,9.7-2.5,12.5-6.5c4.6-0.7,7.9-2.3,8.4-5.2c0.4-2.6-1.8-5.2-6.1-7.4
		c-1.5-5.7-6.2-10.2-12.3-11.2c-4-0.7-8.1,0.3-11.4,2.7c-1.6,1.1-2.9,2.5-3.9,4.1c-4.9,0.8-7.7,2.5-8.1,5.1
		c-0.3,1.7,0.5,4.4,5.7,7.2c0.2,0.1,0.4,0.2,0.6,0.3c0.5,1.6,1.2,3.2,2.2,4.6c2.4,3.3,5.9,5.5,9.9,6.1C171.5,63.9,172.3,64,173.1,64
		z M191,51.8c-0.1,0.8-1.4,1.7-3.6,2.2c0.3-0.9,0.6-1.9,0.8-2.9c0.1-0.9,0.2-1.7,0.2-2.5C190.3,49.9,191.1,51.1,191,51.8z
		 M165.9,38.8c2.1-1.5,4.6-2.3,7.1-2.3c0.7,0,1.3,0.1,2,0.2c6.7,1.1,11.2,7.4,10.1,14c-0.2,1.4-0.7,2.8-1.4,4
		c-3.1,0.3-7,0.2-11.6-0.5c-4.2-0.7-8.1-1.8-11.2-3.2c-0.3-1.4-0.3-2.8-0.1-4.2C161.5,43.6,163.3,40.7,165.9,38.8z M155.1,46
		c0.1-0.7,1.3-1.6,3.5-2.2c-0.3,0.8-0.5,1.6-0.6,2.5c-0.2,1-0.2,2-0.2,3C155.7,47.9,155,46.7,155.1,46z M163.2,55.9
		c-0.3-0.4-0.5-0.7-0.7-1.1c2.8,1,6,1.8,9.3,2.3c2.9,0.5,5.9,0.7,8.6,0.7c0.3,0,0.6,0,0.9,0c-0.3,0.3-0.7,0.6-1,0.9
		c-2.7,1.9-5.9,2.7-9.1,2.2C167.9,60.3,165.1,58.6,163.2,55.9z"/>
	<path class="st39" d="M45.6,116.6c-9.1,0-16.5,7.4-16.5,16.5s7.4,16.5,16.5,16.5s16.5-7.4,16.5-16.5S54.7,116.6,45.6,116.6z
		 M45.6,119.6c5.4,0,10,3.2,12.2,7.7c-5.5,2.5-14.3,0.3-19.6-1.1c-1.4-0.4-2.6-0.7-3.5-0.9C37,121.9,41,119.6,45.6,119.6z
		 M54.3,141.8c-3.6,0-8-0.1-12-1.6c-4.4-1.7-8.2-4.8-10.2-7.2c0-1,0.1-2,0.3-2.9c3.4,2.9,11.5,6.9,24.2,10.7c-0.2,0.3-0.5,0.7-0.8,1
		C55.4,141.8,54.8,141.8,54.3,141.8z M33.1,138.3c2.2,1.8,5,3.6,8.1,4.8c3.7,1.4,7.7,1.7,11.1,1.7c-2,1.1-4.3,1.8-6.7,1.8
		C40,146.6,35.2,143.2,33.1,138.3z M58.1,138.2c-13.1-3.9-19.8-7.4-22.8-9.5c0.7,0.2,1.4,0.4,2.1,0.5c6.1,1.6,15,3.9,21.4,1.1
		c0.2,0.9,0.3,1.9,0.3,2.9C59.1,134.9,58.7,136.6,58.1,138.2z"/>
	<path class="st39" d="M228,169.4l-7.4-11.1l-19.5,12.9l-2.3-3.5l-6.2,4.1l-2.2-3.4l-2.5,1.7l2.2,3.4l-5.5,3.7l2.3,3.5l-20.4,13.5
		l7.4,11.1l20.3-13.5l2.9,4.3l14.3-9.5l-2.9-4.3L228,169.4z M187.7,183.7l1.2,1.8l-17,11.3l-1.2-1.8L187.7,183.7z M174.8,201.2
		l-1.2-1.8l17-11.3l1.2,1.8L174.8,201.2z M206.9,179.9l-1.2-1.8l17-11.3l1.2,1.8L206.9,179.9z M219.8,162.5l1.2,1.8l-17,11.3
		l-1.2-1.8L219.8,162.5z M207.3,185.9L198,192l-9.3-14l9.3-6.1l0.7,1l0,0L206,184l0,0L207.3,185.9z"/>
	<path class="st39" d="M39.9,82.7l4.4,2l-3.2,1.8c-0.7,0.4-1,1.3-0.6,2c0.3,0.5,0.8,0.8,1.3,0.8c0.2,0,0.5-0.1,0.7-0.2l2.7-1.5
		l-0.6,3.9c-0.1,0.8,0.4,1.6,1.3,1.7c0.1,0,0.1,0,0.2,0c0.7,0,1.4-0.5,1.5-1.3l0.8-5.4l5,2.2c0.2,0.1,0.4,0.1,0.6,0.1
		c0.6,0,1.1-0.3,1.4-0.9c0.3-0.8,0-1.6-0.8-2l-3.6-1.6l2.6-1.4c0.7-0.4,1-1.3,0.6-2c-0.4-0.7-1.3-1-2-0.6L49.2,82l0.7-4.8
		c0.1-0.8-0.4-1.6-1.3-1.7c-0.8-0.1-1.6,0.4-1.7,1.3l-0.8,5.4l-5-2.2c-0.8-0.3-1.6,0-2,0.8C38.8,81.5,39.2,82.4,39.9,82.7z"/>
	<path class="st39" d="M191.8,129.2c-0.8-0.3-1.6,0-2,0.8c-0.3,0.8,0,1.6,0.8,2l6.5,2.9l-5,2.7c-0.7,0.4-1,1.3-0.6,2
		c0.3,0.5,0.8,0.8,1.3,0.8c0.2,0,0.5-0.1,0.7-0.2l4.3-2.4l-0.9,5.9c-0.1,0.8,0.4,1.6,1.3,1.7c0.1,0,0.1,0,0.2,0
		c0.7,0,1.4-0.5,1.5-1.3l1.1-7.5l7,3.1c0.2,0.1,0.4,0.1,0.6,0.1c0.6,0,1.1-0.3,1.4-0.9c0.3-0.8,0-1.6-0.8-2l-5.4-2.4l4.1-2.3
		c0.7-0.4,1-1.3,0.6-2c-0.4-0.7-1.3-1-2-0.6l-4.8,2.6l1.1-7.1c0.1-0.8-0.4-1.6-1.3-1.7c-0.8-0.1-1.6,0.4-1.7,1.3l-1.1,7.5
		L191.8,129.2z"/>
	<path class="st39" d="M137,212.2l-3.6-1.6l2.6-1.4c0.7-0.4,1-1.3,0.6-2c-0.4-0.7-1.3-1-2-0.6l-3.1,1.7l0.7-4.8
		c0.1-0.8-0.4-1.6-1.3-1.7c-0.8-0.1-1.6,0.4-1.7,1.3l-0.8,5.4l-5-2.2c-0.8-0.3-1.6,0-2,0.8c-0.3,0.8,0,1.6,0.8,2l4.4,2l-3.2,1.8
		c-0.7,0.4-1,1.3-0.6,2c0.3,0.5,0.8,0.8,1.3,0.8c0.2,0,0.5-0.1,0.7-0.2l2.7-1.5l-0.6,3.9c-0.1,0.8,0.4,1.6,1.3,1.7
		c0.1,0,0.1,0,0.2,0c0.7,0,1.4-0.5,1.5-1.3l0.8-5.4l5,2.2c0.2,0.1,0.4,0.1,0.6,0.1c0.6,0,1.1-0.3,1.4-0.9
		C138.1,213.4,137.7,212.6,137,212.2z"/>
	<path class="st39" d="M202.6,91.7c0.2,0,0.4,0,0.6-0.1l8.3-3.5l1.2,8.9c0.1,0.8,0.7,1.3,1.5,1.3c0.1,0,0.1,0,0.2,0
		c0.8-0.1,1.4-0.9,1.3-1.7l-0.9-7.2l5.1,2.9c0.2,0.1,0.5,0.2,0.7,0.2c0.5,0,1-0.3,1.3-0.8c0.4-0.7,0.2-1.6-0.5-2l-5.8-3.3l8-3.3
		c0.8-0.3,1.1-1.2,0.8-2c-0.3-0.8-1.2-1.1-2-0.8l-8.3,3.5l-1.2-8.9c-0.1-0.8-0.9-1.4-1.7-1.3c-0.8,0.1-1.4,0.9-1.3,1.7l1.1,8.6
		l-6-3.5c-0.7-0.4-1.6-0.2-2,0.5c-0.4,0.7-0.2,1.6,0.5,2l5.3,3l-6.7,2.8c-0.8,0.3-1.1,1.2-0.8,2C201.5,91.4,202,91.7,202.6,91.7z"/>
	<path class="st39" d="M85.7,123.1l-3.5-0.1l3.1-3.7c0.5-0.6,0.4-1.6-0.2-2.1c-0.6-0.5-1.6-0.4-2.1,0.2l-3.5,4.2l-3.1-4.4
		c-0.5-0.7-1.4-0.8-2.1-0.4c-0.7,0.5-0.8,1.4-0.4,2.1l2.8,3.9l-3.7-0.1c-0.8-0.1-1.5,0.6-1.6,1.4c0,0.8,0.6,1.5,1.4,1.6l3.1,0.1
		l-2.5,3c-0.5,0.6-0.4,1.6,0.2,2.1c0.3,0.2,0.6,0.3,1,0.3c0.4,0,0.9-0.2,1.2-0.5l3.5-4.2l3.1,4.4c0.3,0.4,0.8,0.6,1.2,0.6
		c0.3,0,0.6-0.1,0.9-0.3c0.7-0.5,0.8-1.4,0.4-2.1l-2.3-3.2l3,0.1c0,0,0,0,0.1,0c0.8,0,1.5-0.6,1.5-1.4
		C87.2,123.9,86.5,123.2,85.7,123.1z"/>
</g>
</svg>
