<svg xmlns="http://www.w3.org/2000/svg" viewBox="0 0 67.46 35.72"><defs><style>.cls-1{fill:#f8b0a5;}</style></defs><title>Asset 2</title><g id="Layer_2" data-name="Layer 2"><g id="Layer_1-2" data-name="Layer 1"><path class="cls-1" d="M67.36,2.28c0-.16-.08-.16-.91-.16-1.13.08-3.14-.51-4.79-.24a27.32,27.32,0,0,0-3.21,0c-2-.34-3.38.18-5.65-.63-.34-.1-.27.22-1,.15-.4,0-.35-.36-1.54-.22-1.35.15-3.08,0-4.73,0S42.58.86,38.56.52C36.92.37,35.63-.37,34.43.23c-1.84.92-8.2,3.7-15,7.07-.14.07-.74.41-1.12-.48-.77-1.42-1.21-1-3.9-.92-1.92-.08-.5-1.56-2.61-1.51-3.25.07-4.53.34-9.28.24C.56,4.59,0,4.52,0,5.88V34.79a.77.77,0,0,0,.8.88c2.09-.07,5-.12,9.44,0,2,.08,2.53-.76,3.22-4.35.29-1.55,1.48-.72,3.17-1.2,1.53-.6,1.81-4.26,1.81-4.26,0-.82.46-.84.72-.72,6,2.53,12.31-1.31,12.45-.65,1.1,3,4.12,2.8,4.5,2-.08,1.37,2,2.49,2.65,2.17,2.31-1.22,2.35-2.11,4-2.67,2.93-1.27,2.31-2.64,5.12-2.79,2-.11,2.73-.45,3.21-.89,2.13-2.08.29-4.85-1-5.78.48-2.17-2.65-4.81-3.37-6.62a16.07,16.07,0,0,0,4.7-1c1.18-.41.9.19,3,0A13.89,13.89,0,0,0,59.09,8c.52-.24,3.21-.18,4.62-.67A4,4,0,0,0,67.36,2.28ZM16.11,27.75c-.16.67-.29,1.3-1.32,1.35-3.95.3-3.33-.58-3.58-1-.73-5.66-.65-16.43-.09-19.21.49-2.36,1.42-2.12,4.42-2,.93,0,.39.89.33,1.57a68.21,68.21,0,0,0-.33,9.23C15.63,22.77,16.34,26.78,16.11,27.75Zm34.94-6.91c-.26.34-1.34.36-2,.52s-3,.42-2.64-.76.54-1.19,1.55-1.41S51.4,19.76,51.05,20.84ZM65.92,5a9.84,9.84,0,0,1-6.11,1c-1.77-.29-.84.4-3.77.4-1.29-.08-2.09-.08-2.49-.17A10.84,10.84,0,0,1,49,6.62c-1-.25-1.44-.56-2.33-.08a9.66,9.66,0,0,1-5.7.8c-3.37-.4-3.19-1-3.53-.8-.79.59.82,1.7-.85,3-.85.66-1.76-2-2.61-1.93-.5.07-.6.53-.36,1.09.12.26,1.12,1.75.28,2.37-1.36,1-3.81-2-5.7-.77-.45.34,0,.83.56.77a5.41,5.41,0,0,1,3.09,1.32A20,20,0,0,0,36,14.65c3.14,1.29,4.18.33,4.74,1.13.48.6,1.46-.31,2.57-.49,2.1-.34,6.93,1.39,6.47,2.46-.18.35-.5.32-.94.24a3.13,3.13,0,0,0-1.22,0c-1.37.21-1.24.77-2,.67-1-.13-.1-.5-3.41-.42a3.53,3.53,0,0,0-2.13.34c-.32-.26-1.09-.62-1.61-.16-1.2-.24-.78-.39-2.81.08-2.75.62-3.29-.5-4.57-1.12a1.7,1.7,0,0,0-1.23-.18c-5.06.62-2.87.6-9.89.17-2.43-.46-3.37-1.77-3.27-5.06.2-3.73,1-3.21,3-4.1C28,4.53,33.62,1.36,35.79,1.52c6.15.08,5,1.2,13.14,1,2.57-.32,2.49,1,3.45.85.73-.41.13-.79,2.61-.57,5,.46,6-.4,6.51.4.62,1.07.6,1.74,3.87,1.47a4,4,0,0,0,.52-.06C66.29,4.47,66.31,4.72,65.92,5ZM63.21,3.86c-.57-.1-1-1-.42-1.2L66.28,3s.13.08.12.11C66.52,4.37,64.15,4.06,63.21,3.86Z"/></g></g></svg>